<?xml version="1.0" encoding="UTF-8" standalone="no"?>
<svg width="477px" height="103px" viewBox="0 0 477 103" version="1.1" xmlns="http://www.w3.org/2000/svg" xmlns:xlink="http://www.w3.org/1999/xlink">
    <!-- Generator: Sketch 43.1 (39012) - http://www.bohemiancoding.com/sketch -->
    <title>logo</title>
    <desc>Created with Sketch.</desc>
    <defs></defs>
    <g id="Page-1" stroke="none" stroke-width="1" fill="none" fill-rule="evenodd">
        <g id="Group">
            <path d="M410.1344,55.8911313 L403.148178,55.4521588 L410.127059,54.9088177 L410.228881,56.2166589 L403.25,56.76 L403.25,49.76 L411.725,49.76 L404.725,56.76 L404.725,23.16 C404.725,20.8808157 405.814273,18.8560447 407.500629,17.5778757 C408.674701,16.6879916 410.138191,16.16 411.725,16.16 L436.245,16.16 C440.110993,16.16 443.245,19.2940068 443.245,23.16 L443.245,27.1849908 C443.850065,27.1549698 444.460135,27.14 445.075,27.14 C449.36935,27.14 453.43695,27.8703309 457.202868,29.3538741 C461.116252,30.8955102 464.573863,33.1550119 467.456557,36.0788873 C470.346654,39.0102714 472.561384,42.5201242 474.054217,46.4879184 C475.46253,50.2310668 476.155,54.2627199 476.155,58.52 C476.155,62.7923461 475.457664,66.8290294 474.036754,70.5682664 C472.542706,74.4999711 470.333006,77.9835717 467.456557,80.9011127 C464.543197,83.856092 461.042054,86.1231175 457.080206,87.6438266 C453.349302,89.0758908 449.325179,89.78 445.075,89.78 C442.379254,89.78 439.777425,89.4967851 437.285885,88.9231397 C436.946277,88.9737667 400.115,89 400.115,89 C399.036943,89 398.015806,88.7562969 397.103675,88.3209765 C395.573551,88.5674036 393.961522,88.7263895 392.253819,88.8040124 C390.847482,88.8679368 389.466336,88.9 388.11,88.9 C385.576527,88.9 383.130816,88.7224744 380.772631,88.3627513 C380.368232,88.3010633 379.967,88.231552 379.569055,88.1541884 C378.883256,88.3786272 378.150802,88.5 377.39,88.5 L306.77,88.5 C305.672431,88.5 304.633862,88.2473955 303.709256,87.7971518 C299.92256,88.963862 295.88996,89.54 291.65,89.54 C286.510269,89.54 281.686794,88.6934173 277.246318,86.9716003 C275.014093,86.1060437 272.908328,85.0408287 270.943413,83.7824741 C269.753878,84.6130859 268.50326,85.3681156 267.19546,86.045094 C263.489845,87.9632949 259.411887,89.0830328 255.05,89.4261059 L255.05,95.98 C255.05,99.8459932 251.915993,102.98 248.05,102.98 L219.69,102.98 C215.824007,102.98 212.69,99.8459932 212.69,95.98 L212.69,88.501879 C208.601463,88.5025623 206.286067,88.5020938 206.11,88.5 L177.75,88.5 C177.097532,88.5 176.465914,88.410732 175.866693,88.2437431 C172.576698,89.110511 169.086359,89.54 165.43,89.54 C161.074737,89.54 156.919996,88.87908 152.958567,87.5357087 L148.438184,88.2891058 C146.850303,88.5537527 145.174048,88.7230929 143.393819,88.8040124 C141.987482,88.8679368 140.606336,88.9 139.25,88.9 C137.06267,88.9 134.940771,88.7676697 132.88409,88.5 L104.456673,88.5 C101.333168,89.1880869 98.2039696,89.54 95.07,89.54 C91.6943869,89.54 88.4462866,89.1109517 85.3534436,88.2410896 C83.9391372,87.8433159 82.5733573,87.3488034 81.2622896,86.7591924 C80.0145593,87.8547469 78.3860264,88.5 76.6425668,88.5 L52.1899271,88.5 C51.2541562,88.4881324 26.1889168,88.5 26.1889168,88.5 C23.1383039,88.5 20.4389774,86.5243842 19.5165745,83.6165651 L1.00392455,25.2565651 C-0.427798567,20.7431452 2.94120726,16.14 7.67626689,16.14 L37.795259,16.14 C38.77053,16.1528998 39.0147302,16.14 39.2612035,16.14 L63.5974096,16.14 C64.707985,16.1568918 64.9871763,16.14 65.2695945,16.14 L91.1656996,16.14 C95.0967266,15.3476942 98.3948735,15.02 101.71,15.02 C104.499708,15.02 107.311493,15.215368 110.141384,15.604478 C110.331472,15.630615 110.71,10.74 110.71,10.74 C110.71,6.87400675 113.844007,3.74 117.71,3.74 L146.07,3.74 C149.935993,3.74 153.07,6.87400675 153.07,10.74 L153.07,23.14 L146.07,16.14 L154.39,16.14 C158.897747,16.8270502 161.39,19.6924766 161.39,23.14 L161.39,23.971321 L154.39,23.971321 L151.898161,17.4298579 C152.285724,17.2822236 152.676353,17.1414561 153.07,17.0075326 C153.905435,16.7233071 154.754465,16.4699075 155.616634,16.2471145 C158.796637,15.4253696 162.155381,15.02 165.67,15.02 C167.382752,15.02 169.077203,15.1206852 170.75,15.3221301 L170.75,7.38 C170.75,3.51400675 173.884007,0.38 177.75,0.38 L206.11,0.38 C209.975993,0.38 213.11,3.51400675 213.11,7.38 L213.11,22.3647191 L206.11,22.3647191 L204.868132,15.4757595 C206.548048,15.1729222 208.237797,15.02 209.93,15.02 C211.016907,15.02 212.076577,15.0559062 213.11,15.1289645 C215.353864,15.2875955 217.473989,15.6213807 219.480512,16.1430747 C220.365496,16.3731695 221.22838,16.6398178 222.070036,16.9441139 L219.69,23.527079 L212.69,23.527079 L212.69,23.14 C212.69,22.8779608 212.704398,22.6192845 212.732447,22.3647191 C212.794396,21.8024732 212.922934,21.2602808 213.11,20.7462006 C214.065166,18.1212941 216.546272,16.2293163 219.480512,16.1430747 C219.550091,16.1410297 242.913988,16.14 242.913988,16.14 C245.663733,15.3924852 248.527604,15.02 251.47,15.02 C257.175197,15.02 262.41691,16.2014328 267.05044,18.6235056 C268.369897,19.3132217 269.630832,20.0796754 270.829391,20.9205916 C272.788894,19.6482396 274.889974,18.5654766 277.11879,17.6784988 C281.595579,15.8969198 286.464342,15.02 291.65,15.02 C294.44972,15.02 297.160416,15.2756181 299.77,15.7907476 L299.77,7.38 C299.77,3.51400675 302.904007,0.38 306.77,0.38 L335.13,0.38 C338.995993,0.38 342.13,3.51400675 342.13,7.38 L342.13,16.14 L345.488459,16.14 C348.19504,15.3961773 350.966858,15.02 353.77,15.02 C355.796309,15.02 357.727149,15.1447801 359.57,15.4023982 L359.57,10.74 C359.57,6.87400675 362.704007,3.74 366.57,3.74 L394.93,3.74 C398.795993,3.74 401.93,6.87400675 401.93,10.74 L401.93,16.14 C404.848661,16.14 406.322153,16.6759082 407.500629,17.5778757 C409.172026,18.8571092 410.25,20.8726675 410.25,23.14 L410.25,47.74 C410.25,48.4422883 410.146579,49.1204214 409.954136,49.76 C409.847756,50.1135511 409.714174,50.4553209 409.555821,50.7828771 C408.630098,52.6977499 406.857847,54.1268753 404.725,54.5843202 C404.249463,54.6863115 403.756002,54.74 403.25,54.74 L394.93,54.74 L401.93,47.74 L401.93,55.4956668 L393.557187,48.6316021 L401.877187,46.9676021 C402.857874,46.7714646 403.821063,46.7890675 404.725,46.9839319 C406.440765,47.3538046 407.943056,48.3623142 408.946342,49.76 C409.177044,50.0813923 409.381361,50.4233624 409.555821,50.7828771 C409.683075,51.045115 409.794445,51.3166877 409.888582,51.5964181 C410.167851,52.4262747 410.295457,53.3279262 410.236222,54.2706393" id="Combined-Shape" fill="#F1F1F1" fill-rule="nonzero"></path>
            <path d="M403.148178,56.4521588 L403.25,54.8316668 L394.93,56.4956668 L394.93,48.74 L403.25,48.74 L403.25,24.14 L394.93,24.14 L394.93,11.74 L366.57,11.74 L366.57,24.14 L362.354647,24.14 C359.786693,23.3736747 356.928354,23.02 353.77,23.02 C351.294554,23.02 348.86035,23.3977846 346.492453,24.14 L335.13,24.14 L335.13,8.38 L306.77,8.38 L306.77,26.6356848 C305.756966,26.0915162 304.701484,25.6032965 303.605458,25.1715287 C299.936256,23.7260853 295.935106,23.02 291.65,23.02 C287.357334,23.02 283.36032,23.7285616 279.707079,25.1824026 C276.271929,26.5494518 273.232673,28.4782861 270.647285,30.9508034 C268.687769,28.8947554 266.396923,27.180562 263.807661,25.8270837 C260.174479,23.9279205 256.029624,23.02 251.47,23.02 C248.842178,23.02 246.311819,23.3916875 243.909392,24.14 L219.69,24.14 L219.69,24.527079 C216.827194,23.4920469 213.578811,23.02 209.93,23.02 C208.651311,23.02 207.377022,23.136314 206.11,23.3647191 L206.11,8.38 L177.75,8.38 L177.75,25.2018818 C176.876779,24.8602915 175.97964,24.5595714 175.059697,24.2998228 C172.03354,23.4453786 168.896374,23.02 165.67,23.02 C161.611304,23.02 157.83704,23.6582404 154.39,24.971321 L154.39,24.14 L146.07,24.14 L146.07,11.74 L117.71,11.74 L117.71,24.14 L112.325328,24.14 C111.304803,23.8865199 110.258499,23.6864433 109.187856,23.5392299 C106.674095,23.1935877 104.180744,23.02 101.71,23.02 C98.8557933,23.02 96.0174733,23.3021722 93.2030129,23.8650643 C92.7845451,23.9487578 92.3702861,24.0403959 91.9603252,24.14 L65.2695945,24.14 L64.5795898,27.0761719 L63.5974096,24.14 L39.2612035,24.14 L38.0947266,27.7001953 L37.795259,24.14 L7.67626689,24.14 L26.1889168,82.5 L50.7834565,82.5 L51.8466797,79.3066406 L52.1899271,82.5 L76.6425668,82.5 L78.2556687,77.3835969 C78.7409555,77.8628307 79.2539428,78.3168244 79.794025,78.7443895 C81.9748716,80.4708931 84.4817799,81.7243472 87.2486626,82.502533 C89.7256604,83.1991886 92.3385476,83.54 95.07,83.54 C97.9773689,83.54 100.842029,83.1759783 103.663547,82.5 L133.356918,82.5 C135.246739,82.7679935 137.211302,82.9 139.25,82.9 C140.500276,82.9 141.775545,82.8703426 143.075965,82.8112326 C144.573997,82.7431402 145.975605,82.6029794 147.287391,82.3843484 L153.63864,81.3258069 C157.362096,82.8230742 161.277614,83.54 165.43,83.54 C169.914914,83.54 174.047111,82.7800617 177.75,81.2391588 L177.75,82.5 L206.11,82.5 C206.595064,82.5048286 219.69,82.5 219.69,82.5 L219.69,96.98 L248.05,96.98 L248.05,83.2264045 C249.374838,83.4355924 250.729685,83.54 252.11,83.54 C256.453899,83.54 260.443814,82.6578077 263.977511,80.8285999 C266.533623,79.5054358 268.799141,77.8150288 270.741579,75.7786859 C273.324364,78.2231576 276.355933,80.1185299 279.777013,81.4450711 C283.41031,82.8539006 287.382465,83.54 291.65,83.54 C295.91012,83.54 299.886605,82.8562606 303.53595,81.4555017 C304.656716,81.025309 305.735434,80.5348506 306.77,79.9847268 L306.77,82.5 L349.95,82.5 L377.39,82.5 L377.39,81.2822407 C378.792982,81.8210569 380.27607,82.2060309 381.828217,82.4427991 C383.836973,82.7492195 385.931147,82.9 388.11,82.9 C389.360276,82.9 390.635545,82.8703426 391.935965,82.8112326 C393.433997,82.7431402 394.835605,82.6029794 396.147391,82.3843484 L400.115,81.7230803 L400.115,83 L436.245,83 L436.245,82.3441302 C438.981265,83.3104684 441.935394,83.78 445.075,83.78 C448.462561,83.78 451.641807,83.2333423 454.571777,82.1087075 C457.599929,80.9463865 460.258111,79.2319376 462.471831,76.9865935 C464.666557,74.7605134 466.345499,72.1021899 467.493269,69.0817421 C468.612135,66.1373564 469.155,62.9373113 469.155,59.52 C469.155,56.109423 468.614241,52.907562 467.502582,49.9528898 C466.355923,46.9051883 464.674803,44.2278503 462.471831,41.9934065 C460.27428,39.7644625 457.639273,38.0493693 454.637196,36.8667329 C451.688538,35.7051401 448.486077,35.14 445.075,35.14 C441.937041,35.14 438.982024,35.6182391 436.245,36.601451 L436.245,24.16 L411.725,24.16 L411.725,57.76 L403.25,57.76" id="Combined-Shape" fill="#333333" fill-rule="nonzero"></path>
            <path d="M70.32,74 L58.64,74 L51.28,46.24 L51.12,46.24 L44.08,74 L32.32,74 L19.2,32.64 L31.2,32.64 L38.8,60.72 L38.96,60.72 L45.84,32.64 L56.88,32.64 L63.92,60.64 L64.08,60.64 L71.68,32.64 L83.36,32.64 L70.32,74 Z M82.18,45.36 C82.3400008,42.69332 83.0066608,40.4800088 84.18,38.72 C85.3533392,36.9599912 86.8466576,35.546672 88.66,34.48 C90.4733424,33.413328 92.513322,32.6533356 94.78,32.2 C97.046678,31.7466644 99.3266552,31.52 101.62,31.52 C103.70001,31.52 105.806656,31.6666652 107.94,31.96 C110.073344,32.2533348 112.019991,32.8266624 113.78,33.68 C115.540009,34.5333376 116.979994,35.7199924 118.1,37.24 C119.220006,38.7600076 119.78,40.7733208 119.78,43.28 L119.78,64.8 C119.78,66.666676 119.886666,68.4533248 120.1,70.16 C120.313334,71.8666752 120.686664,73.1466624 121.22,74 L109.7,74 C109.486666,73.3599968 109.313334,72.70667 109.18,72.04 C109.046666,71.37333 108.953334,70.6933368 108.9,70 C107.086658,71.866676 104.953346,73.1733296 102.5,73.92 C100.046654,74.6666704 97.5400128,75.04 94.98,75.04 C93.0066568,75.04 91.1666752,74.8000024 89.46,74.32 C87.7533248,73.8399976 86.2600064,73.0933384 84.98,72.08 C83.6999936,71.0666616 82.7000036,69.7866744 81.98,68.24 C81.2599964,66.6933256 80.9,64.853344 80.9,62.72 C80.9,60.3733216 81.3133292,58.4400076 82.14,56.92 C82.9666708,55.3999924 84.0333268,54.1866712 85.34,53.28 C86.6466732,52.3733288 88.1399916,51.6933356 89.82,51.24 C91.5000084,50.7866644 93.1933248,50.426668 94.9,50.16 C96.6066752,49.893332 98.2866584,49.6800008 99.94,49.52 C101.593342,49.3599992 103.059994,49.1200016 104.34,48.8 C105.620006,48.4799984 106.63333,48.0133364 107.38,47.4 C108.12667,46.7866636 108.473334,45.8933392 108.42,44.72 C108.42,43.4933272 108.220002,42.5200036 107.82,41.8 C107.419998,41.0799964 106.88667,40.520002 106.22,40.12 C105.55333,39.719998 104.780004,39.453334 103.9,39.32 C103.019996,39.186666 102.073338,39.12 101.06,39.12 C98.8199888,39.12 97.0600064,39.5999952 95.78,40.56 C94.4999936,41.5200048 93.7533344,43.1199888 93.54,45.36 L82.18,45.36 Z M108.42,53.76 C107.939998,54.1866688 107.340004,54.5199988 106.62,54.76 C105.899996,55.0000012 105.126671,55.1999992 104.3,55.36 C103.473329,55.5200008 102.606671,55.6533328 101.7,55.76 C100.793329,55.8666672 99.8866712,55.9999992 98.98,56.16 C98.1266624,56.3200008 97.2866708,56.533332 96.46,56.8 C95.6333292,57.066668 94.9133364,57.4266644 94.3,57.88 C93.6866636,58.3333356 93.1933352,58.9066632 92.82,59.6 C92.4466648,60.2933368 92.26,61.173328 92.26,62.24 C92.26,63.2533384 92.4466648,64.1066632 92.82,64.8 C93.1933352,65.4933368 93.6999968,66.039998 94.34,66.44 C94.9800032,66.840002 95.7266624,67.1199992 96.58,67.28 C97.4333376,67.4400008 98.3133288,67.52 99.22,67.52 C101.460011,67.52 103.193327,67.1466704 104.42,66.4 C105.646673,65.6533296 106.55333,64.7600052 107.14,63.72 C107.72667,62.6799948 108.086666,61.626672 108.22,60.56 C108.353334,59.493328 108.42,58.6400032 108.42,58 L108.42,53.76 Z M137.48,32.64 L145.8,32.64 L145.8,40.24 L137.48,40.24 L137.48,60.72 C137.48,62.6400096 137.799997,63.9199968 138.44,64.56 C139.080003,65.2000032 140.35999,65.52 142.28,65.52 C142.920003,65.52 143.53333,65.4933336 144.12,65.44 C144.70667,65.3866664 145.266664,65.3066672 145.8,65.2 L145.8,74 C144.839995,74.1600008 143.773339,74.2666664 142.6,74.32 C141.426661,74.3733336 140.280006,74.4 139.16,74.4 C137.399991,74.4 135.733341,74.2800012 134.16,74.04 C132.586659,73.7999988 131.200006,73.3333368 130,72.64 C128.799994,71.9466632 127.853337,70.9600064 127.16,69.68 C126.466663,68.3999936 126.12,66.7200104 126.12,64.64 L126.12,40.24 L119.24,40.24 L119.24,32.64 L126.12,32.64 L126.12,20.24 L137.48,20.24 L137.48,32.64 Z M173.9,47.2 C173.15333,42.4533096 170.353358,40.08 165.5,40.08 C163.686658,40.08 162.166673,40.4933292 160.94,41.32 C159.713327,42.1466708 158.713337,43.2133268 157.94,44.52 C157.166663,45.8266732 156.620002,47.2666588 156.3,48.84 C155.979998,50.4133412 155.82,51.9733256 155.82,53.52 C155.82,55.0133408 155.979998,56.5333256 156.3,58.08 C156.620002,59.6266744 157.139996,61.0266604 157.86,62.28 C158.580004,63.5333396 159.553327,64.559996 160.78,65.36 C162.006673,66.160004 163.499991,66.56 165.26,66.56 C167.980014,66.56 170.073326,65.8000076 171.54,64.28 C173.006674,62.7599924 173.926665,60.7200128 174.3,58.16 L185.26,58.16 C184.51333,63.6533608 182.380018,67.8399856 178.86,70.72 C175.339982,73.6000144 170.833361,75.04 165.34,75.04 C162.246651,75.04 159.40668,74.5200052 156.82,73.48 C154.23332,72.4399948 152.033342,70.986676 150.22,69.12 C148.406658,67.253324 146.993338,65.0266796 145.98,62.44 C144.966662,59.8533204 144.46,57.0133488 144.46,53.92 C144.46,50.719984 144.926662,47.7466804 145.86,45 C146.793338,42.2533196 148.166658,39.88001 149.98,37.88 C151.793342,35.87999 154.006654,34.3200056 156.62,33.2 C159.233346,32.0799944 162.219983,31.52 165.58,31.52 C168.033346,31.52 170.393322,31.8399968 172.66,32.48 C174.926678,33.1200032 176.953324,34.0933268 178.74,35.4 C180.526676,36.7066732 181.979994,38.3333236 183.1,40.28 C184.220006,42.2266764 184.859999,44.53332 185.02,47.2 L173.9,47.2 Z M186.16,16.88 L186.16,74 L197.52,74 L197.52,52.32 C197.52,48.1066456 198.213326,45.0800092 199.6,43.24 C200.986674,41.3999908 203.226651,40.48 206.32,40.48 C209.040014,40.48 210.933328,41.3199916 212,43 C213.066672,44.6800084 213.6,47.2266496 213.6,50.64 L213.6,74 L224.96,74 L224.96,48.56 C224.96,45.9999872 224.733336,43.6666772 224.28,41.56 C223.826664,39.4533228 223.040006,37.666674 221.92,36.2 C220.799994,34.733326 219.266676,33.5866708 217.32,32.76 C215.373324,31.9333292 212.880015,31.52 209.84,31.52 C207.706656,31.52 205.520011,32.0666612 203.28,33.16 C201.039989,34.2533388 199.200007,35.999988 197.76,38.4 L197.52,38.4 L197.52,16.88 L186.16,16.88 Z M248.98,66.56 C250.846676,66.56 252.40666,66.1866704 253.66,65.44 C254.91334,64.6933296 255.926663,63.720006 256.7,62.52 C257.473337,61.319994 258.019998,59.920008 258.34,58.32 C258.660002,56.719992 258.82,55.0933416 258.82,53.44 C258.82,51.7866584 258.646668,50.160008 258.3,48.56 C257.953332,46.959992 257.380004,45.5333396 256.58,44.28 C255.779996,43.0266604 254.75334,42.0133372 253.5,41.24 C252.24666,40.4666628 250.713342,40.08 248.9,40.08 C247.033324,40.08 245.47334,40.4666628 244.22,41.24 C242.96666,42.0133372 241.953337,43.0133272 241.18,44.24 C240.406663,45.4666728 239.860002,46.879992 239.54,48.48 C239.219998,50.080008 239.06,51.7333248 239.06,53.44 C239.06,55.0933416 239.233332,56.719992 239.58,58.32 C239.926668,59.920008 240.486663,61.319994 241.26,62.52 C242.033337,63.720006 243.059994,64.6933296 244.34,65.44 C245.620006,66.1866704 247.166658,66.56 248.98,66.56 Z M228.1,32.64 L238.9,32.64 L238.9,37.92 L239.06,37.92 C240.446674,35.6799888 242.206656,34.0533384 244.34,33.04 C246.473344,32.0266616 248.819987,31.52 251.38,31.52 C254.63335,31.52 257.433322,32.1333272 259.78,33.36 C262.126678,34.5866728 264.073326,36.2133232 265.62,38.24 C267.166674,40.2666768 268.31333,42.6266532 269.06,45.32 C269.80667,48.0133468 270.18,50.826652 270.18,53.76 C270.18,56.5333472 269.80667,59.1999872 269.06,61.76 C268.31333,64.3200128 267.180008,66.5866568 265.66,68.56 C264.139992,70.5333432 262.246678,72.1066608 259.98,73.28 C257.713322,74.4533392 255.060015,75.04 252.02,75.04 C249.459987,75.04 247.100011,74.5200052 244.94,73.48 C242.779989,72.4399948 241.006674,70.9066768 239.62,68.88 L239.46,68.88 L239.46,88.48 L228.1,88.48 L228.1,32.64 Z M281.56,53.36 C281.56,55.0133416 281.719998,56.6266588 282.04,58.2 C282.360002,59.7733412 282.906663,61.1866604 283.68,62.44 C284.453337,63.6933396 285.479994,64.6933296 286.76,65.44 C288.040006,66.1866704 289.63999,66.56 291.56,66.56 C293.48001,66.56 295.093327,66.1866704 296.4,65.44 C297.706673,64.6933296 298.746663,63.6933396 299.52,62.44 C300.293337,61.1866604 300.839998,59.7733412 301.16,58.2 C301.480002,56.6266588 301.64,55.0133416 301.64,53.36 C301.64,51.7066584 301.480002,50.080008 301.16,48.48 C300.839998,46.879992 300.293337,45.4666728 299.52,44.24 C298.746663,43.0133272 297.706673,42.0133372 296.4,41.24 C295.093327,40.4666628 293.48001,40.08 291.56,40.08 C289.63999,40.08 288.040006,40.4666628 286.76,41.24 C285.479994,42.0133372 284.453337,43.0133272 283.68,44.24 C282.906663,45.4666728 282.360002,46.879992 282.04,48.48 C281.719998,50.080008 281.56,51.7066584 281.56,53.36 Z M270.2,53.36 C270.2,50.0533168 270.706662,47.0533468 271.72,44.36 C272.733338,41.6666532 274.173324,39.3733428 276.04,37.48 C277.906676,35.5866572 280.146654,34.1200052 282.76,33.08 C285.373346,32.0399948 288.30665,31.52 291.56,31.52 C294.81335,31.52 297.759987,32.0399948 300.4,33.08 C303.040013,34.1200052 305.293324,35.5866572 307.16,37.48 C309.026676,39.3733428 310.466662,41.6666532 311.48,44.36 C312.493338,47.0533468 313,50.0533168 313,53.36 C313,56.6666832 312.493338,59.65332 311.48,62.32 C310.466662,64.98668 309.026676,67.2666572 307.16,69.16 C305.293324,71.0533428 303.040013,72.5066616 300.4,73.52 C297.759987,74.5333384 294.81335,75.04 291.56,75.04 C288.30665,75.04 285.373346,74.5333384 282.76,73.52 C280.146654,72.5066616 277.906676,71.0533428 276.04,69.16 C274.173324,67.2666572 272.733338,64.98668 271.72,62.32 C270.706662,59.65332 270.2,56.6666832 270.2,53.36 Z M326.54,26.24 L326.54,16.88 L315.18,16.88 L315.18,26.24 L326.54,26.24 Z M315.18,32.64 L315.18,74 L326.54,74 L326.54,32.64 L315.18,32.64 Z M330,32.64 L340.8,32.64 L340.8,38.4 L341.04,38.4 C342.480007,35.999988 344.346655,34.2533388 346.64,33.16 C348.933345,32.0666612 351.279988,31.52 353.68,31.52 C356.720015,31.52 359.213324,31.9333292 361.16,32.76 C363.106676,33.5866708 364.639994,34.733326 365.76,36.2 C366.880006,37.666674 367.666664,39.4533228 368.12,41.56 C368.573336,43.6666772 368.8,45.9999872 368.8,48.56 L368.8,74 L357.44,74 L357.44,50.64 C357.44,47.2266496 356.906672,44.6800084 355.84,43 C354.773328,41.3199916 352.880014,40.48 350.16,40.48 C347.066651,40.48 344.826674,41.3999908 343.44,43.24 C342.053326,45.0800092 341.36,48.1066456 341.36,52.32 L341.36,74 L330,74 L330,32.64 Z M386.34,32.64 L394.66,32.64 L394.66,40.24 L386.34,40.24 L386.34,60.72 C386.34,62.6400096 386.659997,63.9199968 387.3,64.56 C387.940003,65.2000032 389.21999,65.52 391.14,65.52 C391.780003,65.52 392.39333,65.4933336 392.98,65.44 C393.56667,65.3866664 394.126664,65.3066672 394.66,65.2 L394.66,74 C393.699995,74.1600008 392.633339,74.2666664 391.46,74.32 C390.286661,74.3733336 389.140006,74.4 388.02,74.4 C386.259991,74.4 384.593341,74.2800012 383.02,74.04 C381.446659,73.7999988 380.060006,73.3333368 378.86,72.64 C377.659994,71.9466632 376.713337,70.9600064 376.02,69.68 C375.326663,68.3999936 374.98,66.7200104 374.98,64.64 L374.98,40.24 L368.1,40.24 L368.1,32.64 L374.98,32.64 L374.98,20.24 L386.34,20.24 L386.34,32.64 Z" id="watchpoint" fill="#F1F1F1"></path>
            <path d="M408.115,64.76 L408.115,74 L417.535,74 L417.535,64.76 L408.115,64.76 Z M428.245,38.18 L428.245,31.16 L419.725,31.16 L419.725,38.18 L428.245,38.18 Z M419.725,42.98 L419.725,74 L428.245,74 L428.245,42.98 L419.725,42.98 Z M437.575,58.52 C437.575,59.7600062 437.694999,60.9699941 437.935,62.15 C438.175001,63.3300059 438.584997,64.3899953 439.165,65.33 C439.745003,66.2700047 440.514995,67.0199972 441.475,67.58 C442.435005,68.1400028 443.634993,68.42 445.075,68.42 C446.515007,68.42 447.724995,68.1400028 448.705,67.58 C449.685005,67.0199972 450.464997,66.2700047 451.045,65.33 C451.625003,64.3899953 452.034999,63.3300059 452.275,62.15 C452.515001,60.9699941 452.635,59.7600062 452.635,58.52 C452.635,57.2799938 452.515001,56.060006 452.275,54.86 C452.034999,53.659994 451.625003,52.6000046 451.045,51.68 C450.464997,50.7599954 449.685005,50.0100029 448.705,49.43 C447.724995,48.8499971 446.515007,48.56 445.075,48.56 C443.634993,48.56 442.435005,48.8499971 441.475,49.43 C440.514995,50.0100029 439.745003,50.7599954 439.165,51.68 C438.584997,52.6000046 438.175001,53.659994 437.935,54.86 C437.694999,56.060006 437.575,57.2799938 437.575,58.52 Z M429.055,58.52 C429.055,56.0399876 429.434996,53.7900101 430.195,51.77 C430.955004,49.7499899 432.034993,48.0300071 433.435,46.61 C434.835007,45.1899929 436.51499,44.0900039 438.475,43.31 C440.43501,42.5299961 442.634988,42.14 445.075,42.14 C447.515012,42.14 449.72499,42.5299961 451.705,43.31 C453.68501,44.0900039 455.374993,45.1899929 456.775,46.61 C458.175007,48.0300071 459.254996,49.7499899 460.015,51.77 C460.775004,53.7900101 461.155,56.0399876 461.155,58.52 C461.155,61.0000124 460.775004,63.23999 460.015,65.24 C459.254996,67.24001 458.175007,68.9499929 456.775,70.37 C455.374993,71.7900071 453.68501,72.8799962 451.705,73.64 C449.72499,74.4000038 447.515012,74.78 445.075,74.78 C442.634988,74.78 440.43501,74.4000038 438.475,73.64 C436.51499,72.8799962 434.835007,71.7900071 433.435,70.37 C432.034993,68.9499929 430.955004,67.24001 430.195,65.24 C429.434996,63.23999 429.055,61.0000124 429.055,58.52 Z" id=".io" fill="#F6A623"></path>
        </g>
    </g>
</svg>